<?xml version="1.0" encoding="utf-8"?>
<!-- Generator: Adobe Illustrator 19.2.0, SVG Export Plug-In . SVG Version: 6.00 Build 0)  -->
<svg version="1.1" id="Layer_1" xmlns="http://www.w3.org/2000/svg" xmlns:xlink="http://www.w3.org/1999/xlink" x="0px" y="0px"
	 viewBox="0 0 20 20" style="enable-background:new 0 0 20 20;" xml:space="preserve">
<style type="text/css">
	.st0{fill:#333333;}
	.st1{fill-rule:evenodd;clip-rule:evenodd;fill:#333333;}
</style>
<path id="instagram_2_" class="st1" d="M16,18H4c-1.1,0-2-0.9-2-2V4c0-1.1,0.9-2,2-2h12c1.1,0,2,0.9,2,2v12C18,17.1,17.1,18,16,18z
	 M10,6.9c-1.2,0-2.3,0.7-2.8,1.8h0c0,0,0,0,0,0c0,0.1-0.1,0.1-0.1,0.2c0,0,0,0.1,0,0.1C7,9.1,7,9.2,7,9.2c0,0,0,0.1,0,0.1
	c0,0.1,0,0.2,0,0.2c0,0,0,0.1,0,0.1c0,0.1,0,0.2,0,0.3c0,1.7,1.4,3.1,3.1,3.1c1.7,0,3.1-1.4,3.1-3.1c0-0.1,0-0.2,0-0.3
	c0,0,0-0.1,0-0.1c0-0.1,0-0.2,0-0.2c0,0,0-0.1,0-0.1c0-0.1,0-0.1-0.1-0.2c0,0,0-0.1,0-0.1c0-0.1-0.1-0.1-0.1-0.2c0,0,0,0,0,0h0
	C12.3,7.6,11.2,6.9,10,6.9z M16.2,4.6c0-0.4-0.4-0.8-0.8-0.8h-1.6c-0.4,0-0.8,0.4-0.8,0.8v1.6C13,6.6,13.4,7,13.8,7h1.6
	c0.4,0,0.8-0.4,0.8-0.8V4.6z M16.2,8.7h-1.5c0.1,0.4,0.2,0.8,0.2,1.3c0,2.7-2.2,4.9-4.9,4.9S5.1,12.7,5.1,10c0-0.5,0.1-0.9,0.2-1.3
	H3.8v6.7c0,0.4,0.4,0.8,0.8,0.8h10.8c0.4,0,0.8-0.4,0.8-0.8V8.7z"/>
</svg>
