<?xml version="1.0" encoding="utf-8"?>
<!-- Generator: Adobe Illustrator 19.2.0, SVG Export Plug-In . SVG Version: 6.00 Build 0)  -->
<svg version="1.1" id="Layer_1" xmlns="http://www.w3.org/2000/svg" xmlns:xlink="http://www.w3.org/1999/xlink" x="0px" y="0px"
	 viewBox="0 0 20 20" style="enable-background:new 0 0 20 20;" xml:space="preserve">
<style type="text/css">
	.st0{fill:#333333;}
	.st1{fill-rule:evenodd;clip-rule:evenodd;fill:#333333;}
</style>
<path class="st0" d="M18,5.5h-0.6c-0.2,0-0.6,0.3-0.6,0.6V14c0,0.2,0.3,0.5,0.6,0.5H18v1.9h-5.7v-1.9h1.2V6.2h-0.1l-2.8,10.1H8.4
	L5.7,6.2H5.6v8.3h1.2v1.9H2v-1.9h0.6c0.3,0,0.6-0.3,0.6-0.5V6.1c0-0.2-0.3-0.6-0.6-0.6H2V3.7h6l2,7.3H10l2-7.3h6V5.5z"/>
</svg>
