<?xml version="1.0" encoding="utf-8"?>
<!-- Generator: Adobe Illustrator 19.2.0, SVG Export Plug-In . SVG Version: 6.00 Build 0)  -->
<svg version="1.1" id="Layer_1" xmlns="http://www.w3.org/2000/svg" xmlns:xlink="http://www.w3.org/1999/xlink" x="0px" y="0px"
	 viewBox="0 0 20 20" style="enable-background:new 0 0 20 20;" xml:space="preserve">
<style type="text/css">
	.st0{fill:#333333;}
	.st1{fill-rule:evenodd;clip-rule:evenodd;fill:#333333;}
</style>
<path class="st0" d="M19.8,3.9c-0.7,0.3-1.5,0.5-2.3,0.6C18.4,4,19,3.2,19.3,2.3c-0.8,0.5-1.6,0.8-2.6,1C16,2.5,14.9,2,13.8,2
	c-2.2,0-4,1.8-4,4c0,0.3,0,0.6,0.1,0.9C6.5,6.8,3.5,5.2,1.5,2.7C1.2,3.3,1,4,1,4.8c0,1.4,0.7,2.6,1.8,3.4c-0.7,0-1.3-0.2-1.8-0.5
	v0.1c0,2,1.4,3.6,3.2,4c-0.3,0.1-0.7,0.1-1.1,0.1c-0.3,0-0.5,0-0.8-0.1c0.5,1.6,2,2.8,3.8,2.8c-1.4,1.1-3.1,1.7-5,1.7
	c-0.3,0-0.7,0-1-0.1C1.9,17.3,4.1,18,6.3,18c7.4,0,11.5-6.2,11.5-11.5c0-0.2,0-0.4,0-0.5C18.6,5.4,19.3,4.7,19.8,3.9"/>
</svg>
